<?xml version="1.0" encoding="iso-8859-1"?>
<!-- Generator: Adobe Illustrator 17.1.0, SVG Export Plug-In . SVG Version: 6.00 Build 0)  -->
<!DOCTYPE svg PUBLIC "-//W3C//DTD SVG 1.1//EN" "http://www.w3.org/Graphics/SVG/1.1/DTD/svg11.dtd">
<svg version="1.1" id="Capa_1" xmlns="http://www.w3.org/2000/svg" xmlns:xlink="http://www.w3.org/1999/xlink" x="0px" y="0px"
	 width="19px" height="19px" viewBox="0 0 245.666 245.666" style="enable-background:new 0 0 245.666 245.666;" xml:space="preserve">
<path fill="#8B8B8B" d="M215.195,45.921L171.469,2.196C170.062,0.79,168.155,0,166.166,0H35.775c-4.142,0-7.5,3.357-7.5,7.5v230.666
	c0,4.143,3.358,7.5,7.5,7.5h174.117c4.143,0,7.5-3.357,7.5-7.5V51.225C217.391,49.235,216.601,47.328,215.195,45.921z
	 M172.241,116.955c11.354,0,20.592,9.237,20.592,20.592c0,4.143-3.357,7.5-7.5,7.5s-7.5-3.357-7.5-7.5
	c0-3.083-2.509-5.592-5.592-5.592h-6.729v20.996h6.729c11.354,0,20.592,9.237,20.592,20.592c0,4.143-3.357,7.5-7.5,7.5
	s-7.5-3.357-7.5-7.5c0-3.083-2.509-5.592-5.592-5.592h-8.777c-5.478,16.894-21.358,29.146-40.054,29.146h-1.154
	c-18.696,0-34.576-12.252-40.055-29.146h-8.777c-3.083,0-5.592,2.509-5.592,5.592c0,4.143-3.358,7.5-7.5,7.5s-7.5-3.357-7.5-7.5
	c0-11.354,9.237-20.592,20.592-20.592h6.728v-20.996h-6.728c-3.083,0-5.592,2.509-5.592,5.592c0,4.143-3.358,7.5-7.5,7.5
	s-7.5-3.357-7.5-7.5c0-11.354,9.237-20.592,20.592-20.592h6.728V95.958h-6.728c-3.083,0-5.592,2.509-5.592,5.592
	c0,4.143-3.358,7.5-7.5,7.5s-7.5-3.357-7.5-7.5c0-11.354,9.237-20.592,20.592-20.592h7.871c4.398-18.547,21.087-32.39,40.96-32.39
	h1.154c19.872,0,36.561,13.843,40.959,32.39h7.872c11.354,0,20.592,9.237,20.592,20.592c0,4.143-3.357,7.5-7.5,7.5
	s-7.5-3.357-7.5-7.5c0-3.083-2.509-5.592-5.592-5.592h-6.729v20.997H172.241z"/>
<g>
</g>
<g>
</g>
<g>
</g>
<g>
</g>
<g>
</g>
<g>
</g>
<g>
</g>
<g>
</g>
<g>
</g>
<g>
</g>
<g>
</g>
<g>
</g>
<g>
</g>
<g>
</g>
<g>
</g>
</svg>
